<?plantuml 1.2026.2?><svg xmlns="http://www.w3.org/2000/svg" xmlns:xlink="http://www.w3.org/1999/xlink" contentStyleType="text/css" data-diagram-type="CLASS" height="455px" preserveAspectRatio="none" style="width:188px;height:455px;background:#FFFFFF;" version="1.1" viewBox="0 0 188 455" width="188px" zoomAndPan="magnify"><defs/><g><!--class bit_byte_block.config.ProxyConfig--><g class="entity" data-qualified-name="bit_byte_block.config.ProxyConfig" data-source-line="2" id="ent0002"><rect fill="#F1F1F1" height="238.6792" rx="2.5" ry="2.5" style="stroke:#181818;stroke-width:0.5;" width="174.2454" x="7" y="7"/><ellipse cx="49.8864" cy="23" fill="#ADD1B2" rx="11" ry="11" style="stroke:#181818;stroke-width:1;"/><path d="M49.9957,18.5313 Q49.0739,18.5313 48.3395,18.8438 Q47.6207,19.1563 47.1207,19.75 Q46.6207,20.3281 46.3395,21.2031 Q46.0739,22.0781 46.0739,23.1719 Q46.0739,24.6094 46.5114,25.6563 Q46.9645,26.7031 47.8082,27.25 Q48.6676,27.7969 49.9801,27.7969 Q50.7614,27.7969 51.4489,27.6719 Q52.152,27.5313 53.152,27.2188 L53.152,29.0938 Q52.2926,29.4219 51.527,29.5469 Q50.777,29.6719 49.7614,29.6719 Q47.8395,29.6719 46.527,28.875 Q45.2301,28.0625 44.5739,26.5938 Q43.9176,25.1094 43.9176,23.1406 Q43.9176,21.7188 44.3082,20.5469 Q44.7145,19.3594 45.4957,18.4844 Q46.277,17.6094 47.4176,17.1406 Q48.5582,16.6563 50.027,16.6563 Q50.9801,16.6563 51.8707,16.8594 Q52.777,17.0469 53.7145,17.5156 L52.8864,19.2969 Q52.1051,18.9219 51.4489,18.7344 Q50.7926,18.5313 49.9957,18.5313 Z " fill="#000000"/><text fill="#000000" font-family="sans-serif" font-size="14" lengthAdjust="spacing" textLength="80.2757" x="70.0833" y="28.432">ProxyConfig</text><line style="stroke:#181818;stroke-width:0.5;" x1="8" x2="180.2454" y1="39" y2="39"/><text fill="#000000" font-family="sans-serif" font-size="14" lengthAdjust="spacing" textLength="162.2454" x="13" y="57.9659">backup_host : str | None</text><text fill="#000000" font-family="sans-serif" font-size="14" lengthAdjust="spacing" textLength="110.4036" x="13" y="77.0339">backup_port : int</text><text fill="#000000" font-family="sans-serif" font-size="14" lengthAdjust="spacing" textLength="93.1557" x="13" y="96.1018">bind_host : str</text><text fill="#000000" font-family="sans-serif" font-size="14" lengthAdjust="spacing" textLength="91.9657" x="13" y="115.1697">bind_port : int</text><text fill="#000000" font-family="sans-serif" font-size="14" lengthAdjust="spacing" textLength="151.0454" x="13" y="134.2376">connect_timeout : float</text><text fill="#000000" font-family="sans-serif" font-size="14" lengthAdjust="spacing" textLength="122.6115" x="13" y="153.3055">idle_timeout : float</text><text fill="#000000" font-family="sans-serif" font-size="14" lengthAdjust="spacing" textLength="85.6097" x="13" y="172.3734">log_level : str</text><text fill="#000000" font-family="sans-serif" font-size="14" lengthAdjust="spacing" textLength="92.8617" x="13" y="191.4414">status_url : str</text><text fill="#000000" font-family="sans-serif" font-size="14" lengthAdjust="spacing" textLength="127.3155" x="13" y="210.5093">upstream_host : str</text><text fill="#000000" font-family="sans-serif" font-size="14" lengthAdjust="spacing" textLength="126.1255" x="13" y="229.5772">upstream_port : int</text><line style="stroke:#181818;stroke-width:0.5;" x1="8" x2="180.2454" y1="237.6792" y2="237.6792"/></g><!--class bit_byte_block.proxy.StratumProxyServer--><g class="entity" data-qualified-name="bit_byte_block.proxy.StratumProxyServer" data-source-line="14" id="ent0003"><rect fill="#F1F1F1" height="124.2717" rx="2.5" ry="2.5" style="stroke:#181818;stroke-width:0.5;" width="165.2154" x="11.52" y="324.68"/><ellipse cx="26.7998" cy="340.68" fill="#ADD1B2" rx="11" ry="11" style="stroke:#181818;stroke-width:1;"/><path d="M26.9092,336.2113 Q25.9873,336.2113 25.253,336.5238 Q24.5342,336.8363 24.0342,337.43 Q23.5342,338.0081 23.253,338.8831 Q22.9873,339.7581 22.9873,340.8519 Q22.9873,342.2894 23.4248,343.3363 Q23.878,344.3831 24.7217,344.93 Q25.5811,345.4769 26.8936,345.4769 Q27.6748,345.4769 28.3623,345.3519 Q29.0655,345.2113 30.0655,344.8988 L30.0655,346.7738 Q29.2061,347.1019 28.4405,347.2269 Q27.6905,347.3519 26.6748,347.3519 Q24.753,347.3519 23.4405,346.555 Q22.1436,345.7425 21.4873,344.2738 Q20.8311,342.7894 20.8311,340.8206 Q20.8311,339.3988 21.2217,338.2269 Q21.628,337.0394 22.4092,336.1644 Q23.1905,335.2894 24.3311,334.8206 Q25.4717,334.3363 26.9405,334.3363 Q27.8936,334.3363 28.7842,334.5394 Q29.6905,334.7269 30.628,335.1956 L29.7998,336.9769 Q29.0186,336.6019 28.3623,336.4144 Q27.7061,336.2113 26.9092,336.2113 Z " fill="#000000"/><text fill="#000000" font-family="sans-serif" font-size="14" lengthAdjust="spacing" textLength="132.5935" x="40.862" y="346.112">StratumProxyServer</text><line style="stroke:#181818;stroke-width:0.5;" x1="12.52" x2="175.7354" y1="356.68" y2="356.68"/><text fill="#000000" font-family="sans-serif" font-size="14" lengthAdjust="spacing" textLength="40.8798" x="17.52" y="375.6459">config</text><line style="stroke:#181818;stroke-width:0.5;" x1="12.52" x2="175.7354" y1="383.7479" y2="383.7479"/><text fill="#000000" font-family="sans-serif" font-size="14" lengthAdjust="spacing" textLength="97.2576" x="17.52" y="402.7139">close() -&gt; None</text><text fill="#000000" font-family="sans-serif" font-size="14" lengthAdjust="spacing" textLength="153.2154" x="17.52" y="421.7818">serve_forever() -&gt; None</text><text fill="#000000" font-family="sans-serif" font-size="14" lengthAdjust="spacing" textLength="94.3036" x="17.52" y="440.8497">start() -&gt; None</text></g><!--link bit_byte_block.config.ProxyConfig to bit_byte_block.proxy.StratumProxyServer--><g class="link" data-entity-1="ent0002" data-entity-2="ent0003" data-link-type="aggregation" data-source-line="20" id="lnk4"><path codeLine="20" d="M94.12,245.99 C94.12,273.06 94.12,288.76 94.12,312.28" fill="none" id="bit_byte_block.config.ProxyConfig-to-bit_byte_block.proxy.StratumProxyServer" style="stroke:#181818;stroke-width:1;"/><polygon fill="none" points="94.12,324.28,98.12,318.28,94.12,312.28,90.12,318.28,94.12,324.28" style="stroke:#181818;stroke-width:1;"/><text fill="#000000" font-family="sans-serif" font-size="13" lengthAdjust="spacing" textLength="37.96" x="95.12" y="290.577">config</text></g><?plantuml-src ZP51JiCm44NtESMeArWa1-Y23Nk4b0DOZZifLXsFDJEkMa7lJXn8I4GbMDbw_slc-rjG8Te19Lc7BIRBLeaXKiJA1Ii2krUco_MPOk-FEx02dLVJNHLD5yYT6ZSfpSe5xnL0Pzqf9_D6eh07KOOFU2bJ5oaH5yb7BSp7myeyaurdt1JHgL4_8EN2-q2sAFuGy0uET3G1pnYMeQ9MivZCFoYdyKGxRBSlT9NWDZVIwjXI7gOdjyXdv7l5f28tlxrJFL-jbKiWmOT7g9_cUgIuJ4yy9kUjefPrHMxLttzHr_JlOFllM9y0?></g></svg>
