<?xml version="1.0" encoding="UTF-8" standalone="no"?>
<!DOCTYPE svg PUBLIC "-//W3C//DTD SVG 1.1//EN"
 "http://www.w3.org/Graphics/SVG/1.1/DTD/svg11.dtd">
<!-- Generated by graphviz version 13.1.2 (20250808.2320)
 -->
<!-- Title: G Pages: 1 -->
<svg width="569pt" height="280pt"
 viewBox="0.00 0.00 569.00 280.00" xmlns="http://www.w3.org/2000/svg" xmlns:xlink="http://www.w3.org/1999/xlink">
<g id="graph0" class="graph" transform="scale(1 1) rotate(0) translate(4 276.05)">
<title>G</title><style>.edge>path:hover{stroke-width:8}</style>
<polygon fill="white" stroke="none" points="-4,4 -4,-276.05 564.97,-276.05 564.97,4 -4,4"/>
<!-- bit_byte_block___main__ -->
<g id="node1" class="node">
<title>bit_byte_block___main__</title><style>.edge>path:hover{stroke-width:8}</style>
<ellipse fill="#b34c4c" stroke="black" cx="234.98" cy="-20.51" rx="57.98" ry="20.51"/>
<text xml:space="preserve" text-anchor="middle" x="234.98" y="-21.51" font-family="Helvetica,sans-Serif" font-size="10.00" fill="#ffffff">bit_byte_block.</text>
<text xml:space="preserve" text-anchor="middle" x="234.98" y="-11.01" font-family="Helvetica,sans-Serif" font-size="10.00" fill="#ffffff">__main__</text>
</g>
<!-- bit_byte_block_cli -->
<g id="node2" class="node">
<title>bit_byte_block_cli</title><style>.edge>path:hover{stroke-width:8}</style>
<ellipse fill="#a13535" stroke="black" cx="234.98" cy="-97.52" rx="57.98" ry="20.51"/>
<text xml:space="preserve" text-anchor="middle" x="234.98" y="-98.52" font-family="Helvetica,sans-Serif" font-size="10.00" fill="#ffffff">bit_byte_block.</text>
<text xml:space="preserve" text-anchor="middle" x="234.98" y="-88.02" font-family="Helvetica,sans-Serif" font-size="10.00" fill="#ffffff">cli</text>
</g>
<!-- bit_byte_block_cli&#45;&gt;bit_byte_block___main__ -->
<g id="edge1" class="edge">
<title>bit_byte_block_cli&#45;&gt;bit_byte_block___main__</title><style>.edge>path:hover{stroke-width:8}</style>
<path fill="none" stroke="black" d="M234.98,-76.81C234.98,-69.46 234.98,-60.92 234.98,-52.79"/>
<polygon fill="#a13535" stroke="black" points="238.48,-52.86 234.98,-42.86 231.48,-52.86 238.48,-52.86"/>
</g>
<!-- bit_byte_block_config -->
<g id="node3" class="node">
<title>bit_byte_block_config</title><style>.edge>path:hover{stroke-width:8}</style>
<ellipse fill="#ce3b3b" stroke="black" cx="57.98" cy="-251.54" rx="57.98" ry="20.51"/>
<text xml:space="preserve" text-anchor="middle" x="57.98" y="-252.54" font-family="Helvetica,sans-Serif" font-size="10.00" fill="#ffffff">bit_byte_block.</text>
<text xml:space="preserve" text-anchor="middle" x="57.98" y="-242.04" font-family="Helvetica,sans-Serif" font-size="10.00" fill="#ffffff">config</text>
</g>
<!-- bit_byte_block_config&#45;&gt;bit_byte_block_cli -->
<g id="edge2" class="edge">
<title>bit_byte_block_config&#45;&gt;bit_byte_block_cli</title><style>.edge>path:hover{stroke-width:8}</style>
<path fill="none" stroke="black" d="M44.5,-231.22C31.68,-210.24 16.73,-176.69 33.98,-154.02 50.63,-132.15 118.26,-116.7 170.52,-107.74"/>
<polygon fill="#ce3b3b" stroke="black" points="170.97,-111.22 180.26,-106.13 169.82,-104.31 170.97,-111.22"/>
</g>
<!-- bit_byte_block_proxy -->
<g id="node6" class="node">
<title>bit_byte_block_proxy</title><style>.edge>path:hover{stroke-width:8}</style>
<ellipse fill="#c04040" stroke="black" cx="100.98" cy="-174.53" rx="57.98" ry="20.51"/>
<text xml:space="preserve" text-anchor="middle" x="100.98" y="-175.53" font-family="Helvetica,sans-Serif" font-size="10.00" fill="#ffffff">bit_byte_block.</text>
<text xml:space="preserve" text-anchor="middle" x="100.98" y="-165.03" font-family="Helvetica,sans-Serif" font-size="10.00" fill="#ffffff">proxy</text>
</g>
<!-- bit_byte_block_config&#45;&gt;bit_byte_block_proxy -->
<g id="edge3" class="edge">
<title>bit_byte_block_config&#45;&gt;bit_byte_block_proxy</title><style>.edge>path:hover{stroke-width:8}</style>
<path fill="none" stroke="black" d="M69.06,-231.23C73.63,-223.24 79.05,-213.8 84.1,-204.98"/>
<polygon fill="#ce3b3b" stroke="black" points="87.11,-206.77 89.04,-196.36 81.03,-203.29 87.11,-206.77"/>
</g>
<!-- bit_byte_block_miner -->
<g id="node4" class="node">
<title>bit_byte_block_miner</title><style>.edge>path:hover{stroke-width:8}</style>
<ellipse fill="#c24747" stroke="black" cx="234.98" cy="-174.53" rx="57.98" ry="20.51"/>
<text xml:space="preserve" text-anchor="middle" x="234.98" y="-175.53" font-family="Helvetica,sans-Serif" font-size="10.00" fill="#ffffff">bit_byte_block.</text>
<text xml:space="preserve" text-anchor="middle" x="234.98" y="-165.03" font-family="Helvetica,sans-Serif" font-size="10.00" fill="#ffffff">miner</text>
</g>
<!-- bit_byte_block_miner&#45;&gt;bit_byte_block_cli -->
<g id="edge4" class="edge">
<title>bit_byte_block_miner&#45;&gt;bit_byte_block_cli</title><style>.edge>path:hover{stroke-width:8}</style>
<path fill="none" stroke="black" d="M234.98,-153.82C234.98,-146.47 234.98,-137.94 234.98,-129.8"/>
<polygon fill="#c24747" stroke="black" points="238.48,-129.87 234.98,-119.87 231.48,-129.87 238.48,-129.87"/>
</g>
<!-- bit_byte_block_monitor -->
<g id="node5" class="node">
<title>bit_byte_block_monitor</title><style>.edge>path:hover{stroke-width:8}</style>
<ellipse fill="#c24747" stroke="black" cx="368.98" cy="-174.53" rx="57.98" ry="20.51"/>
<text xml:space="preserve" text-anchor="middle" x="368.98" y="-175.53" font-family="Helvetica,sans-Serif" font-size="10.00" fill="#ffffff">bit_byte_block.</text>
<text xml:space="preserve" text-anchor="middle" x="368.98" y="-165.03" font-family="Helvetica,sans-Serif" font-size="10.00" fill="#ffffff">monitor</text>
</g>
<!-- bit_byte_block_monitor&#45;&gt;bit_byte_block_cli -->
<g id="edge5" class="edge">
<title>bit_byte_block_monitor&#45;&gt;bit_byte_block_cli</title><style>.edge>path:hover{stroke-width:8}</style>
<path fill="none" stroke="black" d="M338.91,-156.7C320.03,-146.13 295.46,-132.37 274.95,-120.89"/>
<polygon fill="#c24747" stroke="black" points="276.71,-117.87 266.28,-116.04 273.29,-123.97 276.71,-117.87"/>
</g>
<!-- bit_byte_block_proxy&#45;&gt;bit_byte_block_cli -->
<g id="edge6" class="edge">
<title>bit_byte_block_proxy&#45;&gt;bit_byte_block_cli</title><style>.edge>path:hover{stroke-width:8}</style>
<path fill="none" stroke="black" d="M131.05,-156.7C149.93,-146.13 174.5,-132.37 195.01,-120.89"/>
<polygon fill="#c04040" stroke="black" points="196.67,-123.97 203.69,-116.04 193.25,-117.87 196.67,-123.97"/>
</g>
<!-- bit_byte_block_wallet -->
<g id="node7" class="node">
<title>bit_byte_block_wallet</title><style>.edge>path:hover{stroke-width:8}</style>
<ellipse fill="#c24747" stroke="black" cx="502.98" cy="-174.53" rx="57.98" ry="20.51"/>
<text xml:space="preserve" text-anchor="middle" x="502.98" y="-175.53" font-family="Helvetica,sans-Serif" font-size="10.00" fill="#ffffff">bit_byte_block.</text>
<text xml:space="preserve" text-anchor="middle" x="502.98" y="-165.03" font-family="Helvetica,sans-Serif" font-size="10.00" fill="#ffffff">wallet</text>
</g>
<!-- bit_byte_block_wallet&#45;&gt;bit_byte_block_cli -->
<g id="edge7" class="edge">
<title>bit_byte_block_wallet&#45;&gt;bit_byte_block_cli</title><style>.edge>path:hover{stroke-width:8}</style>
<path fill="none" stroke="black" d="M459.4,-160.75C451.61,-158.49 443.56,-156.17 435.98,-154.02 387.12,-140.16 331.44,-124.82 291.09,-113.79"/>
<polygon fill="#c24747" stroke="black" points="292.17,-110.45 281.6,-111.19 290.32,-117.21 292.17,-110.45"/>
</g>
</g>
</svg>
