<?plantuml 1.2026.2?><svg xmlns="http://www.w3.org/2000/svg" xmlns:xlink="http://www.w3.org/1999/xlink" contentStyleType="text/css" data-diagram-type="DESCRIPTION" height="415px" preserveAspectRatio="none" style="width:602px;height:415px;background:#FFFFFF;" version="1.1" viewBox="0 0 602 415" width="602px" zoomAndPan="magnify"><title>bit-byte-block repository architecture</title><defs/><g><g class="title" data-source-line="2"><text fill="#000000" font-family="sans-serif" font-size="14" font-weight="bold" lengthAdjust="spacing" textLength="260.1051" x="167.6975" y="24.9659">bit-byte-block repository architecture</text></g><!--cluster bit-byte-block--><g class="cluster" data-qualified-name="bit-byte-block" data-source-line="5" id="ent0003"><rect fill="none" height="236.5" rx="2.5" ry="2.5" style="stroke:#181818;stroke-width:1;" width="506" x="90.5" y="52.0679"/><text fill="#000000" font-family="sans-serif" font-size="14" font-weight="bold" lengthAdjust="spacing" textLength="96.0047" x="295.4977" y="69.0339">bit-byte-block</text></g><!--entity miners--><g class="entity" data-qualified-name="miners" data-source-line="4" id="ent0002"><ellipse cx="43.2819" cy="85.0679" fill="#F1F1F1" rx="8" ry="8" style="stroke:#181818;stroke-width:0.5;"/><path d="M43.2819,93.0679 L43.2819,120.0679 M30.2819,101.0679 L56.2819,101.0679 M43.2819,120.0679 L30.2819,135.0679 M43.2819,120.0679 L56.2819,135.0679" fill="none" style="stroke:#181818;stroke-width:0.5;"/><text fill="#000000" font-family="sans-serif" font-size="14" lengthAdjust="spacing" textLength="74.5637" x="6" y="151.5339">Local ASICs</text></g><!--entity ckpool--><g class="entity" data-qualified-name="ckpool" data-source-line="11" id="ent0008"><path d="M296.7941,347.723 C299.7524,342.2863 304.2798,340.7215 308.374,346.556 C311.2513,341.4687 314.505,339.6177 319.0527,344.8228 C322.5446,339.0016 326.727,337.5653 331.4838,343.4833 C335.0584,337.9169 340.5991,338.2233 344.1264,343.5382 C346.352,338.1975 351.4841,337.5095 354.4509,342.8197 C358.4615,338.1013 362.0861,337.3428 365.8707,343.0668 C369.8248,337.6976 375.0235,337.9265 377.5585,344.4602 C380.7603,340.1149 386.1568,339.6535 388.1584,345.686 C392.7799,339.3792 397.398,340.6842 400.7078,346.991 C403.8065,341.8964 408.0097,340.9318 411.7792,346.2798 C419.0755,348.6746 421.2477,353.382 416.5474,359.9586 C423.1104,361.2946 424.8408,366.529 421.0965,371.8186 C427.2857,378.1169 424.5809,384.7177 416.2292,386.039 C420.9869,392.6195 419.5345,396.7032 411.63,398.675 C408.7364,404.7281 404.3936,403.9313 400.8734,399.3062 C397.7613,405.4513 393.381,405.7883 389.4227,400.1269 C385.7129,405.5251 381.5005,406.4009 376.9876,401.0565 C373.4681,405.9661 368.8422,406.8415 365.0558,401.363 C361.9799,406.1041 358.7818,406.2789 355.045,402.1052 C350.8651,407.9709 346.8185,408.1999 342.8811,401.8635 C338.3407,406.4085 334.5792,406.9301 330.9615,400.8302 C327.4859,404.8637 323.5501,404.2811 321.0689,399.6897 C317.0198,404.7712 312.5414,405.1885 308.5606,399.6094 C305.6109,405.7001 300.2256,405.0846 297.1691,399.7156 C289.3112,396.6943 287.0784,392.3897 292.8186,385.2725 C285.9171,383.9407 284.6649,378.424 288.712,373.328 C284.8416,367.0528 285.1513,361.5037 293.848,360.1127 C289.6257,354.6359 289.9681,350.5727 296.7941,347.723" fill="#F1F1F1" style="stroke:#181818;stroke-width:0.5;"/><text fill="#000000" font-family="sans-serif" font-size="14" lengthAdjust="spacing" textLength="78.4137" x="303" y="367.5339">Solo CKPool</text><text fill="#000000" font-family="sans-serif" font-size="14" lengthAdjust="spacing" textLength="100.9816" x="303" y="386.6018">solo.ckpool.org</text></g><!--entity cli--><g class="entity" data-qualified-name="bit-byte-block.cli" data-source-line="6" id="ent0004"><rect fill="#F1F1F1" height="68.1358" rx="2.5" ry="2.5" style="stroke:#181818;stroke-width:0.5;" width="204.7654" x="361" y="82.0679"/><rect fill="#F1F1F1" height="10" style="stroke:#181818;stroke-width:0.5;" width="15" x="545.7654" y="87.0679"/><rect fill="#F1F1F1" height="2" style="stroke:#181818;stroke-width:0.5;" width="4" x="543.7654" y="89.0679"/><rect fill="#F1F1F1" height="2" style="stroke:#181818;stroke-width:0.5;" width="4" x="543.7654" y="93.0679"/><text fill="#000000" font-family="sans-serif" font-size="14" lengthAdjust="spacing" textLength="20.9299" x="376" y="117.0339">CLI</text><text fill="#000000" font-family="sans-serif" font-size="14" lengthAdjust="spacing" textLength="164.7654" x="376" y="136.1018">(src/bit_byte_block/cli.py)</text></g><!--entity proxy--><g class="entity" data-qualified-name="bit-byte-block.proxy" data-source-line="7" id="ent0005"><rect fill="#F1F1F1" height="68.1358" rx="2.5" ry="2.5" style="stroke:#181818;stroke-width:0.5;" width="228.2293" x="98.5" y="212.5679"/><rect fill="#F1F1F1" height="10" style="stroke:#181818;stroke-width:0.5;" width="15" x="306.7293" y="217.5679"/><rect fill="#F1F1F1" height="2" style="stroke:#181818;stroke-width:0.5;" width="4" x="304.7293" y="219.5679"/><rect fill="#F1F1F1" height="2" style="stroke:#181818;stroke-width:0.5;" width="4" x="304.7293" y="223.5679"/><text fill="#000000" font-family="sans-serif" font-size="14" lengthAdjust="spacing" textLength="87.6117" x="113.5" y="247.5339">Proxy Service</text><text fill="#000000" font-family="sans-serif" font-size="14" lengthAdjust="spacing" textLength="188.2293" x="113.5" y="266.6018">(src/bit_byte_block/proxy.py)</text></g><!--entity config--><g class="entity" data-qualified-name="bit-byte-block.config" data-source-line="8" id="ent0006"><rect fill="#F1F1F1" height="68.1358" rx="2.5" ry="2.5" style="stroke:#181818;stroke-width:0.5;" width="231.7012" x="99.5" y="82.0679"/><rect fill="#F1F1F1" height="10" style="stroke:#181818;stroke-width:0.5;" width="15" x="311.2012" y="87.0679"/><rect fill="#F1F1F1" height="2" style="stroke:#181818;stroke-width:0.5;" width="4" x="309.2012" y="89.0679"/><rect fill="#F1F1F1" height="2" style="stroke:#181818;stroke-width:0.5;" width="4" x="309.2012" y="93.0679"/><text fill="#000000" font-family="sans-serif" font-size="14" lengthAdjust="spacing" textLength="92.5956" x="114.5" y="117.0339">Config Loader</text><text fill="#000000" font-family="sans-serif" font-size="14" lengthAdjust="spacing" textLength="191.7012" x="114.5" y="136.1018">(src/bit_byte_block/config.py)</text></g><!--entity monitor--><g class="entity" data-qualified-name="bit-byte-block.monitor" data-source-line="9" id="ent0007"><rect fill="#F1F1F1" height="68.1358" rx="2.5" ry="2.5" style="stroke:#181818;stroke-width:0.5;" width="243.9512" x="344.5" y="212.5679"/><rect fill="#F1F1F1" height="10" style="stroke:#181818;stroke-width:0.5;" width="15" x="568.4512" y="217.5679"/><rect fill="#F1F1F1" height="2" style="stroke:#181818;stroke-width:0.5;" width="4" x="566.4512" y="219.5679"/><rect fill="#F1F1F1" height="2" style="stroke:#181818;stroke-width:0.5;" width="4" x="566.4512" y="223.5679"/><text fill="#000000" font-family="sans-serif" font-size="14" lengthAdjust="spacing" textLength="82.3197" x="359.5" y="247.5339">Status Client</text><text fill="#000000" font-family="sans-serif" font-size="14" lengthAdjust="spacing" textLength="203.9512" x="359.5" y="266.6018">(src/bit_byte_block/monitor.py)</text></g><g class="link" data-entity-1="ent0002" data-entity-2="ent0005" data-link-type="dependency" id="lnk9"><polygon fill="#181818" points="147.2037,212.408,141.5512,204.3427,142.9184,209.8319,137.4293,211.1991,147.2037,212.408" style="stroke:#181818;stroke-width:1;"/><path d="M77.5775,155.5865 C90.3124,168.8008 105.3711,183.1287 120.5,194.5679 C128.8031,200.8461 132.8274,203.7654 142.0614,209.3166" fill="none" style="stroke:#181818;stroke-width:1;"/><text fill="#000000" font-family="sans-serif" font-size="13" lengthAdjust="spacing" textLength="76.0631" x="122.5" y="189.4649">Stratum TCP</text></g><g class="link" data-entity-1="ent0006" data-entity-2="ent0005" data-link-type="dependency" id="lnk10"><polygon fill="#181818" points="206.5414,212.4611,209.2258,202.9851,205.8329,207.5115,201.3065,204.1187,206.5414,212.4611" style="stroke:#181818;stroke-width:1;"/><path d="M207.9702,150.0743 C206.5281,157.7454 205.2387,165.9087 204.5,173.5679 C203.6041,182.8581 203.7746,185.2628 204.5,194.5679 C204.9528,200.3759 204.8412,200.5829 205.6912,206.5216" fill="none" style="stroke:#181818;stroke-width:1;"/><text fill="#000000" font-family="sans-serif" font-size="13" lengthAdjust="spacing" textLength="143.2471" x="206.5" y="189.4649">bind/upstream settings</text></g><g class="link" data-entity-1="ent0004" data-entity-2="ent0005" data-link-type="dependency" id="lnk11"><polygon fill="#181818" points="312.1692,212.5068,322.0131,212.8206,316.8007,210.6227,318.9985,205.4103,312.1692,212.5068" style="stroke:#181818;stroke-width:1;"/><path d="M415.8437,150.2424 C386.1861,170.8552 353.3235,193.6221 351.5,194.5679 C339.0641,201.0182 331.1811,204.7727 317.727,210.2459" fill="none" style="stroke:#181818;stroke-width:1;"/><text fill="#000000" font-family="sans-serif" font-size="13" lengthAdjust="spacing" textLength="74.1131" x="382.5" y="189.4649">start service</text></g><g class="link" data-entity-1="ent0004" data-entity-2="ent0007" data-link-type="dependency" id="lnk12"><polygon fill="#181818" points="465.7196,212.1415,469.5085,203.0506,465.6029,207.1429,461.5106,203.2373,465.7196,212.1415" style="stroke:#181818;stroke-width:1;"/><path d="M464.2726,150.1599 C464.717,169.1967 465.1338,187.0503 465.5796,206.1431" fill="none" style="stroke:#181818;stroke-width:1;"/><text fill="#000000" font-family="sans-serif" font-size="13" lengthAdjust="spacing" textLength="71.3181" x="466.5" y="189.4649">fetch status</text></g><g class="link" data-entity-1="ent0005" data-entity-2="ent0008" data-link-type="dependency" id="lnk13"><polygon fill="#181818" points="308.5729,337.5637,303.9345,328.8754,304.6297,334.4894,299.0157,335.1846,308.5729,337.5637" style="stroke:#181818;stroke-width:1;"/><path d="M244.8474,280.7053 C257.5159,293.2358 272.3769,307.4001 286.5,319.5679 C293.4772,325.5792 296.3461,328.0313 303.841,333.8746" fill="none" style="stroke:#181818;stroke-width:1;"/><text fill="#000000" font-family="sans-serif" font-size="13" lengthAdjust="spacing" textLength="109.4211" x="288.5" y="314.4649">relay Stratum TCP</text></g><g class="link" data-entity-1="ent0007" data-entity-2="ent0008" data-link-type="dependency" id="lnk14"><polygon fill="#181818" points="384.1039,337.2557,393.1383,333.3342,387.4866,333.5737,387.2471,327.9219,384.1039,337.2557" style="stroke:#181818;stroke-width:1;"/><path d="M435.9206,280.8535 C419.8415,298.3555 404.2458,315.3313 388.1631,332.8373" fill="none" style="stroke:#181818;stroke-width:1;"/><text fill="#000000" font-family="sans-serif" font-size="13" lengthAdjust="spacing" textLength="131.7811" x="419.5" y="314.4649">GET /pool/pool.status</text></g><?plantuml-src TP91QyCm38Nl_XLQJjiXoNs7mGXZbFLGI8-5uhXkQcfRGLR6mjX_dv9q7HdT9VX5dvwUXUywqctGuFM0FKCAbdNKYXrx2utZl1dOver7SmQo7IR7I0DeCYV7rd1FLYbjv2TaQpJQmtEzgb86Ea5mqL9I99YEhVXbIyCCFXM0mT1Xj94XgzQhNRnFP4e1zoEudy3IU5TqmyFaAkTbruRmOu3QqhipzdP_Do9NXqdzcOpnw5fOepvO-YV3XFp6cEJIfMRDVOBAEv6tNGB6SODNcujMNyfux0_YWHwXUjiW-brC8WfpxaGKIEqyU99ApTk5F7-QBmIFK3D9W03RQgFcV8jou-AXxBl4P7M0P9bTR9CCTWiiiIPv2VC-hzLBKAaVBPlJICbTrTmq0dCkgPELnxJ8yjExm5vVjb2Ev-bJNFo-0G00?></g></svg>
