<?plantuml 1.2026.2?><svg xmlns="http://www.w3.org/2000/svg" xmlns:xlink="http://www.w3.org/1999/xlink" contentStyleType="text/css" data-diagram-type="DESCRIPTION" height="354px" preserveAspectRatio="none" style="width:435px;height:354px;background:#FFFFFF;" version="1.1" viewBox="0 0 435 354" width="435px" zoomAndPan="magnify"><title>bit-byte-block Shell Script Flow</title><defs/><g><g class="title" data-source-line="1"><text fill="#000000" font-family="Monospace" font-size="14" font-weight="bold" lengthAdjust="spacing" textLength="212.7607" x="104.5222" y="24.9659">bit-byte-block&#160;Shell&#160;Script&#160;Flow</text></g><!--entity shell_scripts_miner_setup_sh--><g class="entity" data-qualified-name="shell_scripts_miner_setup_sh" data-source-line="7" id="ent0002"><rect fill="#DBEAFE" height="77.2038" rx="2.5" ry="2.5" style="stroke:#181818;stroke-width:0.5;" width="167.9654" x="7" y="47.0679"/><text fill="#000000" font-family="Monospace" font-size="14" lengthAdjust="spacing" textLength="147.9654" x="17" y="72.0339">scripts/miner-setup.sh</text><text fill="#000000" font-family="Monospace" font-size="14" lengthAdjust="spacing" textLength="119.3915" x="17" y="91.1018">0&#160;local&#160;shell&#160;edges</text><text fill="#000000" font-family="Monospace" font-size="14" lengthAdjust="spacing" textLength="95.0456" x="17" y="110.1697">1&#160;external&#160;tool</text></g><!--entity shell_scripts_run_proxy_sh--><g class="entity" data-qualified-name="shell_scripts_run_proxy_sh" data-source-line="8" id="ent0003"><rect fill="#DBEAFE" height="77.2038" rx="2.5" ry="2.5" style="stroke:#181818;stroke-width:0.5;" width="154.2175" x="13.87" y="159.0679"/><text fill="#000000" font-family="Monospace" font-size="14" lengthAdjust="spacing" textLength="134.2175" x="23.87" y="184.0339">scripts/run_proxy.sh</text><text fill="#000000" font-family="Monospace" font-size="14" lengthAdjust="spacing" textLength="119.3915" x="23.87" y="203.1018">0&#160;local&#160;shell&#160;edges</text><text fill="#000000" font-family="Monospace" font-size="14" lengthAdjust="spacing" textLength="101.7516" x="23.87" y="222.1697">0&#160;external&#160;tools</text></g><!--entity shell_scripts_setup_sh--><g class="entity" data-qualified-name="shell_scripts_setup_sh" data-source-line="9" id="ent0004"><rect fill="#DBEAFE" height="77.2038" rx="2.5" ry="2.5" style="stroke:#181818;stroke-width:0.5;" width="139.3915" x="21.29" y="271.0679"/><text fill="#000000" font-family="Monospace" font-size="14" lengthAdjust="spacing" textLength="104.4256" x="31.29" y="296.0339">scripts/setup.sh</text><text fill="#000000" font-family="Monospace" font-size="14" lengthAdjust="spacing" textLength="119.3915" x="31.29" y="315.1018">0&#160;local&#160;shell&#160;edges</text><text fill="#000000" font-family="Monospace" font-size="14" lengthAdjust="spacing" textLength="101.7516" x="31.29" y="334.1697">0&#160;external&#160;tools</text></g><!--entity tool_bit_byte_block--><g class="entity" data-qualified-name="tool_bit_byte_block" data-source-line="10" id="ent0005"><path d="M279.3303,69.9423 C282.5276,63.7059 288.7145,63.722 292.2816,69.5453 C296.1079,63.3816 302.1871,63.6054 305.2424,70.3212 C309.2579,62.6422 313.9684,62.8186 319.0683,69.2593 C323.6607,61.8779 329.5087,62.0328 333.8439,69.5151 C337.449,63.8532 342.8277,64.7291 345.9225,70.075 C350.2026,62.6596 356.1513,62.9056 360.8473,69.6363 C364.0183,63.5102 368.266,63.2657 372.2692,68.8228 C377.9665,61.8717 382.8155,63.6672 387.1126,70.3475 C398.1546,69.1902 402.8799,77.1281 396.7773,86.3349 C401.0839,95.6581 397.8414,101.6581 387.6451,103.0646 C382.9805,109.3736 376.981,109.2775 372.4947,102.8524 C369.6066,108.7084 363.4117,109.4714 359.2588,104.3818 C355.1857,111.3061 350.3825,110.4503 346.0312,104.6715 C341.8637,110.3539 336.3491,111.4242 332.2193,104.6297 C327.8192,110.3808 323.4629,110.1242 319.4748,104.1807 C316.7572,111.0291 310.5006,111.1275 306.8484,105.097 C302.4999,111.173 295.2711,111.3128 291.8758,104.0287 C287.6406,110.5645 281.7332,109.1931 278.8974,102.641 C271.1123,98.9896 272.0935,92.2679 277.965,87.7608 C270.6203,81.5931 269.503,74.7942 279.3303,69.9423" fill="#FEF3C7" style="stroke:#181818;stroke-width:0.5;"/><text fill="#000000" font-family="Monospace" font-size="14" lengthAdjust="spacing" textLength="93.2956" x="285.24" y="91.0939">bit_byte_block</text></g><g class="entity" data-qualified-name="shellGraphSummary" data-source-line="13" id="ent0007"><path d="M234.97,166.1079 L234.97,229.226 L428.8051,229.226 L428.8051,176.1079 L418.8051,166.1079 L234.97,166.1079" fill="#FEFFDD" style="stroke:#181818;stroke-width:0.5;"/><path d="M418.8051,166.1079 L418.8051,176.1079 L428.8051,176.1079 L418.8051,166.1079" fill="#FEFFDD" style="stroke:#181818;stroke-width:1;"/><text fill="#000000" font-family="Monospace" font-size="13" lengthAdjust="spacing" textLength="141.5311" x="240.97" y="185.0049">Scanned&#160;3&#160;shell&#160;scripts.</text><text fill="#000000" font-family="Monospace" font-size="13" lengthAdjust="spacing" textLength="172.8351" x="240.97" y="202.7109">Detected&#160;0&#160;local&#160;shell&#160;edges.</text><text fill="#000000" font-family="Monospace" font-size="13" lengthAdjust="spacing" textLength="150.2281" x="240.97" y="220.417">Detected&#160;1&#160;external&#160;tool.</text></g><!--link shell_scripts_miner_setup_sh to tool_bit_byte_block--><g class="link" data-entity-1="ent0002" data-entity-2="ent0005" data-link-type="dependency" data-source-line="11" id="lnk6"><path d="M175.24,85.6679 C206.44,85.6679 235.22,85.6679 264.07,85.6679" fill="none" id="shell_scripts_miner_setup_sh-to-tool_bit_byte_block" style="stroke:#181818;stroke-width:1;"/><polygon fill="#181818" points="270.07,85.6679,261.07,81.6679,265.07,85.6679,261.07,89.6679,270.07,85.6679" style="stroke:#181818;stroke-width:1;"/></g><?plantuml-src ZL5DRy8m3BtdLrXmBcFYiDkaRT2TjaklI55e3Or8xIXn1VttIpk4ojPzNEtdz-4dLXp2pagswmIpdUFo24MDpa5H1ki5SiSdvN0l80p17cg1oWOinJAfUBJaJJ0DnDfKVB9qWBrn4KUR2lUcTP8poRjf4DwOE7fJZZ4bDvu9IGhfaf-Utj31ZI7E4ahd4JX8pUeAWLaSZCQx9Y525b5QluZrbfQGqXYNhFLni3fWtD8zu5amK9eBivk1YPy0VQ7H0uqUQ7IiORv-tZpbcod1q9BsWS_TptBBMxaueNTb-KFjZs3_KFgMgNJSLZ1BzUk-VZtKFnps5Ffs3lDyawzU7jIlxygonwbZHInuTVGQZA-BjcbCw5HH6YAiO7N9So5Ug3LA-aBQJEGTRRyqkb185VHo7m00?></g></svg>
