<?plantuml 1.2026.2?><svg xmlns="http://www.w3.org/2000/svg" xmlns:xlink="http://www.w3.org/1999/xlink" contentStyleType="text/css" data-diagram-type="DESCRIPTION" height="790px" preserveAspectRatio="none" style="width:464px;height:790px;background:#FFFFFF;" version="1.1" viewBox="0 0 464 790" width="464px" zoomAndPan="magnify"><title>bit-byte-block Tooling Integrations</title><defs/><g><g class="title" data-source-line="1"><text fill="#000000" font-family="Monospace" font-size="14" font-weight="bold" lengthAdjust="spacing" textLength="241.8946" x="104.1183" y="24.9659">bit-byte-block&#160;Tooling&#160;Integrations</text></g><!--entity source_github_workflows_ci_yml--><g class="entity" data-qualified-name="source_github_workflows_ci_yml" data-source-line="7" id="ent0002"><rect fill="#E0F2FE" height="58.1358" rx="2.5" ry="2.5" style="stroke:#181818;stroke-width:0.5;" width="182.6234" x="7" y="341.0679"/><text fill="#000000" font-family="Monospace" font-size="14" lengthAdjust="spacing" textLength="162.6234" x="17" y="366.0339">.github/workflows/ci.yml</text><text fill="#000000" font-family="Monospace" font-size="14" lengthAdjust="spacing" textLength="105.3356" x="17" y="385.1018">6&#160;detected&#160;tools</text></g><!--entity source_scripts_miner_setup_sh--><g class="entity" data-qualified-name="source_scripts_miner_setup_sh" data-source-line="8" id="ent0003"><rect fill="#E0F2FE" height="58.1358" rx="2.5" ry="2.5" style="stroke:#181818;stroke-width:0.5;" width="167.9654" x="14.33" y="47.0679"/><text fill="#000000" font-family="Monospace" font-size="14" lengthAdjust="spacing" textLength="147.9654" x="24.33" y="72.0339">scripts/miner-setup.sh</text><text fill="#000000" font-family="Monospace" font-size="14" lengthAdjust="spacing" textLength="98.6296" x="24.33" y="91.1018">1&#160;detected&#160;tool</text></g><!--entity source_scripts_run_proxy_sh--><g class="entity" data-qualified-name="source_scripts_run_proxy_sh" data-source-line="9" id="ent0004"><rect fill="#E0F2FE" height="58.1358" rx="2.5" ry="2.5" style="stroke:#181818;stroke-width:0.5;" width="154.2175" x="21.2" y="633.0679"/><text fill="#000000" font-family="Monospace" font-size="14" lengthAdjust="spacing" textLength="134.2175" x="31.2" y="658.0339">scripts/run_proxy.sh</text><text fill="#000000" font-family="Monospace" font-size="14" lengthAdjust="spacing" textLength="105.3356" x="31.2" y="677.1018">0&#160;detected&#160;tools</text></g><!--entity source_scripts_setup_sh--><g class="entity" data-qualified-name="source_scripts_setup_sh" data-source-line="10" id="ent0005"><rect fill="#E0F2FE" height="58.1358" rx="2.5" ry="2.5" style="stroke:#181818;stroke-width:0.5;" width="125.3356" x="35.64" y="726.0679"/><text fill="#000000" font-family="Monospace" font-size="14" lengthAdjust="spacing" textLength="104.4256" x="45.64" y="751.0339">scripts/setup.sh</text><text fill="#000000" font-family="Monospace" font-size="14" lengthAdjust="spacing" textLength="105.3356" x="45.64" y="770.1018">0&#160;detected&#160;tools</text></g><!--entity tool_actions_checkout--><g class="entity" data-qualified-name="tool_actions_checkout" data-source-line="11" id="ent0006"><path d="M291.8521,143.9736 C295.7039,137.8146 300.4465,137.9551 304.176,144.0962 C307.4817,137.3332 312.4834,138.5822 316.522,143.3087 C321.1423,136.1613 325.4029,136.2861 330.0439,143.289 C334.3187,137.0056 338.1513,137.9936 342.2473,143.4745 C345.5788,138.7886 350.7924,138.9422 353.5726,144.1082 C356.2708,138.4505 362.5373,137.9586 366.1145,143.0861 C370.1941,137.0488 375.4919,137.1084 379.865,142.7402 C385.0396,137.3047 389.8012,137.8048 392.6516,145.0785 C395.6226,138.9545 401.1029,139.0386 404.1415,145.0143 C408.1103,139.1808 412.4944,139.9378 416.5044,144.9674 C426.1857,147.377 427.4959,153.5367 422.4982,161.325 C427.9431,169.7822 426.478,174.8855 416.5347,177.7585 C414.2871,183.4299 408.9273,183.9012 405.7514,178.6773 C402.1644,185.1875 396.0023,185.7768 391.4111,179.8336 C388.6776,185.7361 384.7071,187.3515 379.4771,182.6408 C376.1962,189.1447 371.7001,188.9688 367.6201,183.4273 C365.0917,190.8665 358.5743,191.3334 354.566,184.8111 C349.6627,191.2089 344.2036,189.1332 341.7165,182.4395 C337.7806,189.2175 331.8589,189.0621 328.2881,182.0831 C323.7534,187.6015 319.0651,186.1229 316.3915,180.1555 C312.5143,185.273 307.1553,184.8951 304.6114,178.7598 C300.1505,184.2229 293.9286,184.9587 290.6671,177.4686 C283.5691,173.4171 282.1677,165.4342 290.7487,161.4627 C282.5064,155.4345 283.4535,148.9519 291.8521,143.9736" fill="#FEF3C7" style="stroke:#181818;stroke-width:0.5;"/><text fill="#000000" font-family="Monospace" font-size="14" lengthAdjust="spacing" textLength="111.9156" x="297.42" y="165.5739">actions/checkout</text></g><!--entity tool_actions_setup_python--><g class="entity" data-qualified-name="tool_actions_setup_python" data-source-line="12" id="ent0007"><path d="M277.4891,229.1586 C279.7016,223.1038 283.9152,223.042 287.7339,227.6095 C292.5976,222.2798 296.9369,222.9286 300.3297,229.2057 C302.2257,224.6163 307.0236,222.7621 310.4796,227.5098 C313.8391,221.2172 317.4466,221.3238 321.5151,226.8476 C325.0953,221.3611 328.833,222.2593 332.2827,226.9852 C336.1214,222.6436 339.7598,222.972 342.536,228.1318 C345.7114,222.3273 350.7679,220.6745 355.5098,226.3636 C358.5556,221.3928 361.494,221.4513 364.615,226.2938 C368.9481,220.5512 373.2761,221.1919 377.0053,226.9448 C381.048,222.0074 384.9171,222.6712 387.9786,227.9943 C390.7471,222.6213 395.5105,223.2976 398.6199,227.6201 C401.6703,221.976 406.4718,222.6911 409.2025,227.9309 C413.4274,222.2887 417.2272,222.9722 421.2637,228.141 C425.0554,222.8706 429.5072,223.184 432.7076,228.7645 C441.8526,231.4658 443.6841,239.489 437.164,246.1952 C444.1989,254.2909 441.7516,260.8288 431.1614,262.3928 C427.6794,267.9835 423.901,267.9111 420.7167,262.1195 C418.6718,267.9953 413.7328,267.6188 410.2659,263.6252 C407.519,269.4879 402.8912,269.6393 398.9938,264.8419 C395.8727,270.9577 390.1231,270.6933 387.0538,264.7904 C384.6305,270.3561 381.4016,269.735 377.5033,266.3674 C374.3492,271.5005 369.7885,272.1364 366.2769,266.7489 C363.9021,272.1306 358.2419,272.6046 354.8929,267.8421 C351.3116,273.8657 346.7683,273.539 343.081,267.9498 C339.5063,272.5287 334.3135,273.2175 331.6166,267.0164 C327.9668,271.4999 323.6618,269.9887 321.9153,265.0556 C317.4632,269.0863 313.7324,268.7505 310.5781,263.4746 C306.4418,269.5835 302.5278,268.2796 298.6484,263.2006 C296.421,267.6265 291.7923,267.493 289.1388,263.6932 C285.3647,269.3686 279.7849,268.7549 277.2862,262.4331 C267.5493,261.1473 263.9789,253.9795 268.5511,245.3689 C263.5885,236.4528 266.1167,229.0679 277.4891,229.1586" fill="#FEF3C7" style="stroke:#181818;stroke-width:0.5;"/><text fill="#000000" font-family="Monospace" font-size="14" lengthAdjust="spacing" textLength="140.2795" x="283.24" y="249.5739">actions/setup-python</text></g><!--entity tool_bit_byte_block--><g class="entity" data-qualified-name="tool_bit_byte_block" data-source-line="13" id="ent0008"><path d="M300.8203,60.4223 C304.0176,54.1859 310.2045,54.202 313.7716,60.0253 C317.5979,53.8616 323.6771,54.0854 326.7324,60.8012 C330.7479,53.1222 335.4584,53.2986 340.5583,59.7393 C345.1507,52.3579 350.9987,52.5128 355.3339,59.9951 C358.939,54.3332 364.3177,55.2091 367.4125,60.555 C371.6926,53.1396 377.6413,53.3856 382.3373,60.1163 C385.5083,53.9902 389.756,53.7457 393.7592,59.3028 C399.4565,52.3517 404.3055,54.1472 408.6026,60.8275 C419.6446,59.6702 424.3699,67.6081 418.2673,76.8149 C422.5739,86.1381 419.3314,92.1381 409.1351,93.5446 C404.4705,99.8536 398.471,99.7575 393.9847,93.3324 C391.0966,99.1884 384.9017,99.9514 380.7488,94.8618 C376.6757,101.7861 371.8725,100.9303 367.5212,95.1515 C363.3537,100.8339 357.8391,101.9042 353.7093,95.1097 C349.3092,100.8608 344.9529,100.6042 340.9648,94.6607 C338.2472,101.5091 331.9906,101.6075 328.3384,95.577 C323.9899,101.653 316.7611,101.7928 313.3658,94.5087 C309.1306,101.0445 303.2232,99.6731 300.3874,93.121 C292.6023,89.4696 293.5835,82.7479 299.455,78.2408 C292.1103,72.0731 290.993,65.2742 300.8203,60.4223" fill="#FEF3C7" style="stroke:#181818;stroke-width:0.5;"/><text fill="#000000" font-family="Monospace" font-size="14" lengthAdjust="spacing" textLength="93.2956" x="306.73" y="81.5739">bit_byte_block</text></g><!--entity tool_black--><g class="entity" data-qualified-name="tool_black" data-source-line="14" id="ent0009"><path d="M329.8612,313.2232 C331.883,306.7288 337.9275,306.2091 342.0573,310.9311 C345.9281,304.3061 350.2547,304.1607 354.6824,310.3839 C359.092,304.8895 362.9421,305.1062 366.4659,311.2786 C370.711,305.5203 376.5044,305.5637 379.3593,312.6717 C387.3522,316.5333 388.0731,323.0347 381.5501,328.8606 C388.0622,334.9782 387.181,342.7889 378.5317,346.2792 C376.8048,352.5164 371.5459,355.0205 366.195,350.395 C365.1992,356.6527 359.887,357.7595 355.5339,353.9506 C348.9892,359.4375 343.5735,357.5601 342.0211,349.1103 C336.2256,355.0109 331.4228,353.6227 329.2937,345.7278 C318.6735,343.8528 317.1882,337.7357 323.1849,329.576 C317.2682,321.25 321.0606,315.5407 329.8612,313.2232" fill="#FEF3C7" style="stroke:#181818;stroke-width:0.5;"/><text fill="#000000" font-family="Monospace" font-size="14" lengthAdjust="spacing" textLength="34.2719" x="336.24" y="333.5739">black</text></g><!--entity tool_pip--><g class="entity" data-qualified-name="tool_pip" data-source-line="15" id="ent0010"><path d="M337.2512,395.6766 C341.5955,388.0487 349.0607,386.5861 354.5151,394.4386 C361.9231,386.3247 368.0318,388.2722 372.3205,397.6194 C381.6919,398.8715 385.7519,403.7641 380.917,412.9712 C387.0078,422.6979 381.3344,429.122 371.4461,429.9196 C368.5361,439.8952 362.8452,442.2625 354.4633,435.4574 C346.1473,442.5697 338.3326,438.6665 336.3446,428.7317 C328.532,424.453 326.1,419.8308 333.6087,412.9039 C326.5408,405.6859 327.4257,399.3228 337.2512,395.6766" fill="#FEF3C7" style="stroke:#181818;stroke-width:0.5;"/><text fill="#000000" font-family="Monospace" font-size="14" lengthAdjust="spacing" textLength="20.8319" x="342.96" y="417.5739">pip</text></g><!--entity tool_pytest--><g class="entity" data-qualified-name="tool_pytest" data-source-line="16" id="ent0011"><path d="M327.4993,481.0932 C330.2145,474.215 337.2722,472.6115 341.9373,478.9657 C345.1665,473.1763 350.8545,472.9353 354.792,478.1373 C358.8187,472.3668 364.6801,473.4471 367.0694,479.796 C372.7568,472.4524 377.8761,472.0668 382.454,480.8542 C394.2375,481.1854 397.6719,488.1037 391.1109,497.8041 C396.6347,507.3746 392.785,514.555 381.4091,514.0056 C379.7027,521.647 374.879,523.4562 369.0581,517.8384 C367.2312,525.4377 360.875,528.5615 354.2065,523.5324 C349.0218,527.754 342.3824,526.5144 341.745,518.7892 C334.6472,524.7482 328.083,522.0921 327.5606,512.7097 C319.4531,509.9164 316.0182,504.2636 322.3568,496.7577 C315.358,489.299 319.5314,483.6385 327.4993,481.0932" fill="#FEF3C7" style="stroke:#181818;stroke-width:0.5;"/><text fill="#000000" font-family="Monospace" font-size="14" lengthAdjust="spacing" textLength="40.4599" x="333.15" y="501.5739">pytest</text></g><!--entity tool_ruff--><g class="entity" data-qualified-name="tool_ruff" data-source-line="17" id="ent0012"><path d="M334.9332,564.2953 C339.8031,554.8958 349.1861,554.1636 354.8062,563.4996 C361.6149,555.8068 367.2965,555.8415 372.4354,565.2236 C382.991,565.8733 385.2417,572.4672 380.4255,580.9345 C385.2034,589.764 381.8004,594.7286 372.7939,597.0172 C367.6511,606.9725 361.9608,607.6756 354.3229,599.5688 C347.6735,607.158 339.3881,607.957 335.2221,597.0098 C326.2182,595.7019 323.4961,588.7438 329.739,581.9023 C322.419,574.6711 326.1846,566.786 334.9332,564.2953" fill="#FEF3C7" style="stroke:#181818;stroke-width:0.5;"/><text fill="#000000" font-family="Monospace" font-size="14" lengthAdjust="spacing" textLength="24.0659" x="341.35" y="585.5739">ruff</text></g><g class="entity" data-qualified-name="toolingGraphSummary" data-source-line="26" id="ent0020"><path d="M249.62,639.4379 L249.62,684.8499 L457.1312,684.8499 L457.1312,649.4379 L447.1312,639.4379 L249.62,639.4379" fill="#FEFFDD" style="stroke:#181818;stroke-width:0.5;"/><path d="M447.1312,639.4379 L447.1312,649.4379 L457.1312,649.4379 L447.1312,639.4379" fill="#FEFFDD" style="stroke:#181818;stroke-width:1;"/><text fill="#000000" font-family="Monospace" font-size="13" lengthAdjust="spacing" textLength="186.5112" x="255.62" y="658.3349">Scanned&#160;4&#160;tooling&#160;entrypoints.</text><text fill="#000000" font-family="Monospace" font-size="13" lengthAdjust="spacing" textLength="171.7822" x="255.62" y="676.0409">Detected&#160;7&#160;third-party&#160;tools.</text></g><!--link source_github_workflows_ci_yml to tool_actions_checkout--><g class="link" data-entity-1="ent0002" data-entity-2="ent0006" data-link-type="dependency" data-source-line="18" id="lnk13"><path d="M185.13,340.9379 C185.13,283.2379 185.13,160.1379 185.13,160.1379 C185.13,160.1379 230.17,160.1379 276.03,160.1379" fill="none" id="source_github_workflows_ci_yml-to-tool_actions_checkout" style="stroke:#181818;stroke-width:1;"/><polygon fill="#181818" points="282.03,160.1379,273.03,156.1379,277.03,160.1379,273.03,164.1379,282.03,160.1379" style="stroke:#181818;stroke-width:1;"/></g><!--link source_github_workflows_ci_yml to tool_actions_setup_python--><g class="link" data-entity-1="ent0002" data-entity-2="ent0007" data-link-type="dependency" data-source-line="19" id="lnk14"><path d="M187.13,340.5979 C187.13,303.3579 187.13,244.1379 187.13,244.1379 C187.13,244.1379 221.09,244.1379 261.82,244.1379" fill="none" id="source_github_workflows_ci_yml-to-tool_actions_setup_python" style="stroke:#181818;stroke-width:1;"/><polygon fill="#181818" points="267.82,244.1379,258.82,240.1379,262.82,244.1379,258.82,248.1379,267.82,244.1379" style="stroke:#181818;stroke-width:1;"/></g><!--link source_github_workflows_ci_yml to tool_black--><g class="link" data-entity-1="ent0002" data-entity-2="ent0009" data-link-type="dependency" data-source-line="20" id="lnk15"><path d="M190.04,346.8779 C235.74,346.8779 282.12,346.8779 314.98,346.8779" fill="none" id="source_github_workflows_ci_yml-to-tool_black" style="stroke:#181818;stroke-width:1;"/><polygon fill="#181818" points="320.98,346.8779,311.98,342.8779,315.98,346.8779,311.98,350.8779,320.98,346.8779" style="stroke:#181818;stroke-width:1;"/></g><!--link source_github_workflows_ci_yml to tool_pip--><g class="link" data-entity-1="ent0002" data-entity-2="ent0010" data-link-type="dependency" data-source-line="21" id="lnk16"><path d="M190.04,393.4079 C238.88,393.4079 289.35,393.4079 321.47,393.4079" fill="none" id="source_github_workflows_ci_yml-to-tool_pip" style="stroke:#181818;stroke-width:1;"/><polygon fill="#181818" points="327.47,393.4079,318.47,389.4079,322.47,393.4079,318.47,397.4079,327.47,393.4079" style="stroke:#181818;stroke-width:1;"/></g><!--link source_github_workflows_ci_yml to tool_pytest--><g class="link" data-entity-1="ent0002" data-entity-2="ent0011" data-link-type="dependency" data-source-line="22" id="lnk17"><path d="M185.13,399.6779 C185.13,436.9279 185.13,496.1379 185.13,496.1379 C185.13,496.1379 262.31,496.1379 311.7,496.1379" fill="none" id="source_github_workflows_ci_yml-to-tool_pytest" style="stroke:#181818;stroke-width:1;"/><polygon fill="#181818" points="317.7,496.1379,308.7,492.1379,312.7,496.1379,308.7,500.1379,317.7,496.1379" style="stroke:#181818;stroke-width:1;"/></g><!--link source_github_workflows_ci_yml to tool_ruff--><g class="link" data-entity-1="ent0002" data-entity-2="ent0012" data-link-type="dependency" data-source-line="23" id="lnk18"><path d="M180.13,399.3379 C180.13,457.0379 180.13,580.1379 180.13,580.1379 C180.13,580.1379 271.08,580.1379 319.93,580.1379" fill="none" id="source_github_workflows_ci_yml-to-tool_ruff" style="stroke:#181818;stroke-width:1;"/><polygon fill="#181818" points="325.93,580.1379,316.93,576.1379,320.93,580.1379,316.93,584.1379,325.93,580.1379" style="stroke:#181818;stroke-width:1;"/></g><!--link source_scripts_miner_setup_sh to tool_bit_byte_block--><g class="link" data-entity-1="ent0003" data-entity-2="ent0008" data-link-type="dependency" data-source-line="24" id="lnk19"><path d="M182.54,76.1379 C218.09,76.1379 252.74,76.1379 285.46,76.1379" fill="none" id="source_scripts_miner_setup_sh-to-tool_bit_byte_block" style="stroke:#181818;stroke-width:1;"/><polygon fill="#181818" points="291.46,76.1379,282.46,72.1379,286.46,76.1379,282.46,80.1379,291.46,76.1379" style="stroke:#181818;stroke-width:1;"/></g><?plantuml-src bLJ1ZjiW4BtxAr3sR6UxhRgtNjgusaDxIOyh8OAnGS4CWa4fVr-Crx6JL5dlSJplFPxV3A12BSX1ONc8ACg31duaVm2qCXrvCIWwnr21yOKMBH84ubGdaJJA2Juq2dzKnZB7Uk8bQ-0q45kclLXq6j6oeB46WxzPByWlCE0juqiCXzw24GRt69EbGPwPJYyXoPJ0Q0K1XnAACuHigawX38Vj2TonrN3oMwwgsEjNypKTZWaeccGUjDyGvec7uBYW8ucUIPGhcaZaOVTOFzMxvG6UEsNHR_jamPLUOB2Lbw_cqwNyKlsDGZE5PWhryfwu2uPQ1tzZbdwyutpIFZFUKPuDhr6zySerX8PiM9vuobOAVeI0cJkeqBSEdJhaeTxLdxy_NpEpScbZ6f-vPO_dZjrhXRIYT5XHcbTqvbv-ls5fTW4UockCLNP6fEAcdzJzub_7-XhbGjlEcA4w8zxPjhByzlyGFqnSvhUQd3DPZKxvhCVce5R3XyoA-tTdDdqnzS80YYdxzFxyTCpAVUXxvcAnvyoOjErVfYv9RuoB5fH1NnK_fjlmJ50grvJfgS4utesg4AOXW_W_?></g></svg>
